<svg width="160" height="155" viewBox="0 0 160 155" fill="none" xmlns="http://www.w3.org/2000/svg">
<path d="M7.66448 78.4385L6.8906 77.459C7.09168 77.3006 7.29465 77.1151 7.49949 76.9026C7.70434 76.69 7.88016 76.4391 8.02695 76.1499C8.17438 75.8517 8.26156 75.5084 8.2885 75.1201C8.32985 74.5241 8.22699 74.0496 7.97992 73.6967C7.72384 73.3431 7.37058 73.1506 6.92015 73.1192C6.41567 73.084 6.02866 73.2476 5.75911 73.6099C5.49019 73.9632 5.25409 74.4957 5.05082 75.2074C4.83541 75.9637 4.49908 76.5709 4.04184 77.029C3.57622 77.4775 2.98757 77.6769 2.27589 77.6273C1.83447 77.5965 1.43692 77.4553 1.08323 77.2038C0.720533 76.9517 0.442241 76.592 0.248354 76.1248C0.0454597 75.657 -0.0331179 75.0935 0.0126215 74.4342C0.0533484 73.8473 0.167947 73.3698 0.356418 73.0018C0.536506 72.6242 0.733163 72.334 0.94639 72.1311C1.15962 71.9281 1.33242 71.7859 1.46481 71.7044L2.20192 72.6269C2.10682 72.6929 1.98125 72.8066 1.82521 72.9681C1.66917 73.1297 1.52769 73.3421 1.40079 73.6055C1.26551 73.8592 1.1844 74.1802 1.15746 74.5685C1.13114 74.9478 1.17709 75.264 1.2953 75.5173C1.4045 75.7699 1.55413 75.9618 1.74417 76.093C1.92521 76.2236 2.11932 76.2961 2.32652 76.3105C2.76794 76.3413 3.1141 76.1794 3.36501 75.8249C3.6069 75.4697 3.82823 74.9543 4.029 74.2787C4.15942 73.8341 4.34683 73.4162 4.59124 73.0249C4.82663 72.633 5.14228 72.3238 5.53818 72.0973C5.9257 71.8612 6.42576 71.7645 7.03834 71.8072C7.56084 71.8436 8.01057 72.0156 8.38752 72.3232C8.76447 72.6307 9.05346 73.032 9.25447 73.5269C9.44648 74.0212 9.52149 74.5709 9.47952 75.1759C9.44067 75.7358 9.32482 76.2313 9.13196 76.6625C8.93973 77.0846 8.71103 77.4453 8.44587 77.7444C8.17233 78.0338 7.91187 78.2652 7.66448 78.4385Z" fill="#ACACAC"/>
<path d="M9.22333 62.821L10.1456 62.2525C10.3972 62.5924 10.5774 62.9866 10.6862 63.4351C10.7862 63.8817 10.7813 64.3663 10.6715 64.8889C10.5319 65.5533 10.2695 66.0992 9.88442 66.5266C9.50115 66.9453 9.03861 67.2362 8.49677 67.3993C7.94609 67.5606 7.35264 67.574 6.71641 67.4397C6.11553 67.3129 5.59651 67.0599 5.15936 66.6809C4.7222 66.3018 4.409 65.8379 4.21975 65.2892C4.02352 64.7297 3.99147 64.1355 4.1236 63.5066C4.2334 62.984 4.42295 62.543 4.69227 62.1836C4.96158 61.8242 5.28507 61.5363 5.66273 61.32L6.25356 62.2634C5.98473 62.4009 5.75612 62.5886 5.56775 62.8263C5.37937 63.0641 5.24703 63.3645 5.17073 63.7277C5.0814 64.1529 5.11021 64.5428 5.25715 64.8976C5.39712 65.2417 5.61825 65.5289 5.92054 65.7592C6.22283 65.9896 6.57279 66.1467 6.97044 66.2306C7.35041 66.3108 7.72945 66.3076 8.10757 66.2209C8.47872 66.1235 8.80197 65.9466 9.07732 65.6902C9.35267 65.4338 9.53501 65.093 9.62433 64.6679C9.70063 64.3047 9.70229 63.9674 9.62929 63.656C9.54932 63.3338 9.414 63.0555 9.22333 62.821Z" fill="#ACACAC"/>
<path d="M12.4079 57.1033L12.0098 58.2583L6.63259 56.396C6.57284 56.3754 6.50456 56.3517 6.42774 56.3251C6.35092 56.2985 6.22569 56.2599 6.05203 56.2094L6.43244 55.1057L7.40593 55.3997C7.3018 55.2583 7.19667 55.0782 7.09053 54.8595C6.98734 54.6322 6.92023 54.3696 6.8892 54.0715C6.85818 53.7734 6.90459 53.4447 7.02844 53.0854C7.07268 52.9571 7.12102 52.8445 7.17348 52.7477C7.22889 52.6424 7.28988 52.5486 7.35646 52.4663L8.34344 53.0955C8.23061 53.2288 8.13291 53.4152 8.05034 53.6548C7.93828 53.9799 7.9219 54.3046 8.00119 54.629C8.07489 54.9418 8.22177 55.2225 8.44182 55.4711C8.66186 55.7197 8.93833 55.9017 9.2712 56.017L12.4079 57.1033Z" fill="#ACACAC"/>
<path d="M16.0947 48.1481C15.8103 48.7241 15.4223 49.173 14.9309 49.4947C14.4314 49.8125 13.8909 49.9887 13.3095 50.0234C12.724 50.0459 12.1601 49.9227 11.6179 49.6536C11.0676 49.3805 10.6279 49.0057 10.2989 48.5294C9.97395 48.0449 9.7901 47.5092 9.7474 46.9224C9.69661 46.3315 9.81345 45.7481 10.0979 45.1721C10.3824 44.5962 10.7724 44.1534 11.2679 43.8437C11.7593 43.522 12.2957 43.3437 12.8771 43.3091C13.4586 43.2744 14.0244 43.3936 14.5747 43.6667C15.117 43.9357 15.5546 44.3145 15.8877 44.8031C16.2127 45.2876 16.4006 45.8252 16.4514 46.4161C16.4981 46.9948 16.3792 47.5721 16.0947 48.1481ZM15.1479 47.6782C15.3442 47.2807 15.4134 46.8959 15.3553 46.5236C15.2933 46.1393 15.1405 45.7958 14.8969 45.4932C14.6574 45.1824 14.3677 44.9427 14.0278 44.774C13.6879 44.6053 13.3221 44.5197 12.9304 44.5172C12.5426 44.5066 12.1815 44.5951 11.8471 44.7826C11.5045 44.9662 11.2371 45.2526 11.0448 45.642C10.8525 46.0314 10.7874 46.4183 10.8495 46.8026C10.9035 47.1829 11.0502 47.5285 11.2897 47.8393C11.5251 48.1379 11.8168 48.3736 12.1648 48.5462C12.5047 48.7149 12.8705 48.8005 13.2623 48.803C13.6459 48.8015 14.007 48.713 14.3456 48.5376C14.6881 48.3541 14.9556 48.0676 15.1479 47.6782Z" fill="#ACACAC"/>
<path d="M19.4367 41.4413L11.8318 36.5516L12.4901 35.523L20.0949 40.4127L19.4367 41.4413Z" fill="#ACACAC"/>
<path d="M22.5071 36.757L15.299 31.2966L16.034 30.3217L23.2421 35.782L22.5071 36.757Z" fill="#ACACAC"/>
<path d="M29.2566 25.6356L27.0872 23.2451L26.2455 24.0127L25.5619 23.2594L26.4035 22.4919L25.018 20.9652L25.9198 20.1429L27.3053 21.6695L28.668 20.4269L29.3516 21.1802L27.9889 22.4228L30.0763 24.7228C30.4166 25.0978 30.7073 25.3038 30.9485 25.3409C31.1964 25.3719 31.4272 25.2899 31.6409 25.095C31.8146 24.9366 31.9339 24.7788 31.9988 24.6217C32.0705 24.4585 32.1111 24.2746 32.1207 24.07L33.0329 24.2478C33.0093 24.6119 32.9305 24.9286 32.7963 25.1978C32.6749 25.4676 32.4739 25.7304 32.1934 25.9862C31.7058 26.4309 31.2235 26.6259 30.7466 26.5713C30.2637 26.5099 29.767 26.198 29.2566 25.6356Z" fill="#ACACAC"/>
<path d="M38.6838 20.6C38.1598 20.9705 37.6053 21.1797 37.0203 21.2278C36.4301 21.2684 35.8712 21.1651 35.3436 20.9178C34.8181 20.6579 34.3811 20.2801 34.0323 19.7845C33.6784 19.2815 33.4701 18.742 33.4074 18.166C33.3521 17.5848 33.4451 17.0261 33.6866 16.4898C33.9229 15.9461 34.3031 15.4891 34.827 15.1187C35.3509 14.7482 35.9043 14.5453 36.4872 14.5098C37.0722 14.4618 37.6285 14.5614 38.1561 14.8087C38.6837 15.056 39.1245 15.4311 39.4784 15.9342C39.8271 16.4298 40.0318 16.9719 40.0923 17.5605C40.1476 18.1417 40.0571 18.7041 39.8208 19.2478C39.5867 19.7789 39.2077 20.2296 38.6838 20.6ZM38.0748 19.7345C38.4364 19.4789 38.6802 19.1736 38.8062 18.8187C38.9343 18.4512 38.9633 18.0762 38.8932 17.6938C38.8304 17.3062 38.6897 16.957 38.4711 16.6463C38.2525 16.3356 37.9716 16.0856 37.6284 15.8962C37.2926 15.7017 36.9331 15.6069 36.5499 15.612C36.1615 15.6097 35.7902 15.7337 35.436 15.9841C35.0817 16.2346 34.8406 16.5436 34.7124 16.9111C34.579 17.2712 34.5437 17.6451 34.6065 18.0327C34.6715 18.4077 34.8158 18.7543 35.0396 19.0724C35.2582 19.3831 35.5391 19.6331 35.8823 19.8224C36.2203 20.0044 36.5798 20.0992 36.9609 20.1067C37.3493 20.109 37.7206 19.985 38.0748 19.7345Z" fill="#ACACAC"/>
<path d="M54.6217 11.5454L54.2837 10.8183C54.2523 10.9092 54.1876 11.0625 54.0897 11.2781C54.0001 11.4903 53.8511 11.7121 53.6425 11.9433C53.4306 12.1662 53.1364 12.3542 52.7598 12.5073C52.266 12.7079 51.7733 12.7666 51.2816 12.6831C50.7864 12.5913 50.3343 12.3648 49.9251 12.0037C49.5159 11.6425 49.1875 11.1558 48.9398 10.5434C48.7159 9.98971 48.6162 9.47833 48.6408 9.00923C48.6705 8.52834 48.785 8.10085 48.9845 7.72674C49.184 7.35263 49.4315 7.03713 49.7271 6.78024C50.0277 6.51156 50.3328 6.3143 50.6425 6.18845C50.9605 6.05921 51.246 5.98222 51.4991 5.9575C51.7606 5.92937 52.0322 5.92642 52.3141 5.94863L51.1893 3.16775L52.319 2.70859L55.4746 10.5101C55.4881 10.5437 55.5204 10.6234 55.5713 10.7492C55.6188 10.8667 55.6705 10.9824 55.7263 11.0964L54.6217 11.5454ZM53.5865 9.09441L52.7416 7.00561C52.5401 6.941 52.3052 6.91437 52.0369 6.92572C51.7687 6.93706 51.4672 7.01076 51.1324 7.14681C50.5884 7.36789 50.2104 7.74619 49.9983 8.28173C49.7945 8.81387 49.8283 9.41548 50.0998 10.0866C50.2491 10.4557 50.4451 10.7716 50.6878 11.0344C50.9388 11.2938 51.2272 11.4647 51.5529 11.5472C51.8752 11.6213 52.2289 11.5802 52.6138 11.4237C53.0072 11.2639 53.2854 11.0482 53.4484 10.7768C53.6165 10.4937 53.7023 10.1999 53.7059 9.89566C53.7179 9.58799 53.6781 9.32091 53.5865 9.09441Z" fill="#ACACAC"/>
<path d="M62.2822 9.17604C61.6603 9.33233 61.0678 9.32724 60.5048 9.16077C59.9397 8.98552 59.4554 8.68726 59.0521 8.26601C58.6554 7.83377 58.3835 7.32352 58.2364 6.73524C58.087 6.13818 58.0866 5.55968 58.2352 4.99974C58.3925 4.4376 58.6802 3.95001 59.0983 3.53699C59.5141 3.11518 60.033 2.82613 60.6549 2.66983C61.2768 2.51354 61.866 2.52412 62.4224 2.70157C62.9854 2.86805 63.4685 3.16191 63.8718 3.58316C64.2751 4.00442 64.5514 4.51357 64.7007 5.11063C64.8478 5.69891 64.8438 6.27851 64.6887 6.84944C64.5314 7.41158 64.2448 7.90355 63.829 8.32536C63.4197 8.73618 62.9041 9.01974 62.2822 9.17604ZM62.0252 8.14874C62.4544 8.04088 62.7916 7.84416 63.0367 7.55858C63.2884 7.26203 63.4502 6.92272 63.5222 6.54067C63.603 6.15641 63.5973 5.77989 63.5051 5.41112C63.4128 5.04235 63.2407 4.70766 62.9886 4.40705C62.7453 4.10424 62.444 3.886 62.0847 3.75232C61.7232 3.60986 61.3323 3.59146 60.9118 3.69713C60.4914 3.80279 60.1553 4.0039 59.9037 4.30046C59.6498 4.58823 59.4825 4.92425 59.4017 5.30851C59.3275 5.68178 59.3376 6.0572 59.432 6.43475C59.5242 6.80352 59.6964 7.13821 59.9485 7.43882C60.1983 7.73064 60.4996 7.94889 60.8524 8.09355C61.2138 8.23601 61.6048 8.25441 62.0252 8.14874Z" fill="#ACACAC"/>
<path d="M70.7911 7.12379L68.1148 1.02364L69.4505 0.904566L71.2797 5.58074L72.3649 0.644762L73.4038 0.552147L75.3445 5.25928L76.2911 0.294749L77.5459 0.182889L76.0261 6.65711L74.8252 6.76416L72.9781 2.49853L71.9244 7.02276L70.7911 7.12379Z" fill="#ACACAC"/>
<path d="M82.9156 6.45961L81.6988 6.38422L82.0473 0.732946C82.0523 0.651632 82.0573 0.570319 82.0623 0.489006C82.0679 0.398658 82.0717 0.262856 82.0738 0.0816016L83.2365 0.153641L83.2186 1.10481C83.3362 0.957919 83.4902 0.808745 83.6805 0.657287C83.8713 0.496795 84.1056 0.366199 84.3832 0.2655C84.6704 0.156324 85.0078 0.113743 85.3954 0.137756C86.2156 0.188575 86.8089 0.47021 87.1754 0.982661C87.5425 1.48608 87.7009 2.14435 87.6508 2.95749L87.4176 6.73855L86.2009 6.66316L86.4282 2.97696C86.4644 2.3897 86.3601 1.95245 86.1155 1.66521C85.8804 1.36949 85.5375 1.20767 85.0868 1.17975C84.6272 1.15127 84.2546 1.25062 83.9692 1.47781C83.6843 1.69596 83.4716 1.99114 83.331 2.36334C83.1994 2.7361 83.1211 3.12577 83.0961 3.53233L82.9156 6.45961Z" fill="#ACACAC"/>
<path d="M98.0701 8.45718L99.4711 3.35137L98.3741 3.04887L98.6435 2.06698L99.7406 2.36948L99.8771 1.87199C100.028 1.32213 100.251 0.900258 100.548 0.60636C100.844 0.312463 101.175 0.127013 101.543 0.0500118C101.911 -0.0269894 102.277 -0.0150738 102.643 0.0857586C102.965 0.174587 103.264 0.313382 103.54 0.502144C103.827 0.684578 104.068 0.933998 104.262 1.2504L103.466 1.84768C103.218 1.48828 102.911 1.25817 102.546 1.15734C102.206 1.06371 101.902 1.09718 101.633 1.25776C101.373 1.42074 101.17 1.76843 101.024 2.30083L100.916 2.69359L102.653 3.17254L102.384 4.15443L100.647 3.67547L99.2455 8.78129L98.0701 8.45718Z" fill="#ACACAC"/>
<path d="M107.196 11.5467C106.604 11.3007 106.131 10.9428 105.778 10.4728C105.428 9.99449 105.216 9.46574 105.143 8.88657C105.081 8.30249 105.166 7.73029 105.398 7.16996C105.633 6.60127 105.976 6.13645 106.428 5.7755C106.889 5.41801 107.41 5.19826 107.991 5.11625C108.576 5.02588 109.164 5.10366 109.757 5.3496C110.349 5.59553 110.816 5.95593 111.157 6.43078C111.51 6.90074 111.724 7.42531 111.797 8.00449C111.871 8.58366 111.79 9.1576 111.555 9.72629C111.323 10.2866 110.976 10.7497 110.512 11.1156C110.051 11.473 109.529 11.697 108.944 11.7873C108.371 11.8728 107.788 11.7926 107.196 11.5467ZM107.6 10.5682C108.009 10.7379 108.397 10.7813 108.763 10.6983C109.142 10.6105 109.474 10.4347 109.758 10.1709C110.052 9.91052 110.271 9.60472 110.416 9.25347C110.561 8.90222 110.622 8.53061 110.598 8.13863C110.583 7.75012 110.47 7.39489 110.261 7.07295C110.056 6.74263 109.753 6.49434 109.352 6.32808C108.952 6.16181 108.562 6.1226 108.184 6.21045C107.809 6.28993 107.475 6.45984 107.182 6.72019C106.9 6.97564 106.685 7.28317 106.537 7.64278C106.391 7.99403 106.331 8.36564 106.354 8.75762C106.382 9.14123 106.494 9.49646 106.691 9.82331C106.897 10.1536 107.2 10.4019 107.6 10.5682Z" fill="#ACACAC"/>
<path d="M115.129 14.9851L114.072 14.3753L116.912 9.43346C116.943 9.37855 116.979 9.3158 117.02 9.2452C117.06 9.1746 117.122 9.05861 117.204 8.89721L118.214 9.47999L117.742 10.3828C117.9 10.307 118.096 10.2375 118.331 10.1743C118.573 10.1156 118.843 10.0991 119.141 10.1248C119.438 10.1505 119.752 10.2582 120.08 10.448C120.198 10.5158 120.299 10.5846 120.384 10.6545C120.476 10.7289 120.557 10.8067 120.625 10.8877L119.822 11.7406C119.713 11.6043 119.549 11.473 119.33 11.3465C119.032 11.1748 118.717 11.0974 118.385 11.1142C118.064 11.1277 117.761 11.2193 117.476 11.389C117.191 11.5587 116.961 11.7965 116.785 12.1024L115.129 14.9851Z" fill="#ACACAC"/>
<path d="M127.02 22.8107L126.136 21.9689L130.027 17.8647C130.083 17.8056 130.139 17.7466 130.195 17.6875C130.257 17.6219 130.347 17.5204 130.465 17.3829L131.31 18.1873L130.686 18.9044C130.864 18.8614 131.071 18.8401 131.307 18.8405C131.55 18.8343 131.81 18.8821 132.087 18.9839C132.37 19.0791 132.649 19.2577 132.924 19.5196C133.278 19.8563 133.501 20.206 133.593 20.5686C133.698 20.9309 133.688 21.3089 133.564 21.7026C133.953 21.6607 134.359 21.6856 134.783 21.7772C135.213 21.8623 135.621 22.0888 136.007 22.4567C136.597 23.0179 136.864 23.6098 136.809 24.2322C136.761 24.8482 136.457 25.4514 135.897 26.0419L133.294 28.7879L132.41 27.946L134.948 25.2689C135.732 24.4422 135.797 23.717 135.142 23.0934C134.9 22.8627 134.622 22.7225 134.307 22.6729C133.999 22.6168 133.69 22.6406 133.38 22.7446C133.076 22.842 132.805 23.0154 132.569 23.2647L130.162 25.804L129.278 24.9621L131.816 22.2851C132.22 21.8586 132.431 21.4658 132.447 21.1068C132.47 20.7413 132.327 20.412 132.02 20.1189C131.699 19.8133 131.36 19.6587 131.002 19.655C130.644 19.6514 130.295 19.7499 129.956 19.9506C129.622 20.1448 129.315 20.3896 129.035 20.6848L127.02 22.8107Z" fill="#ACACAC"/>
<path d="M137.541 34.0936C137.155 33.5808 136.928 33.0322 136.861 32.4477C136.801 31.8577 136.886 31.2943 137.115 30.7576C137.357 30.2227 137.719 29.7724 138.202 29.4067C138.692 29.0356 139.223 28.8091 139.795 28.7274C140.373 28.6529 140.933 28.7278 141.475 28.9521C142.025 29.171 142.493 29.5368 142.88 30.0495C143.266 30.5623 143.487 31.11 143.542 31.6928C143.609 32.2773 143.528 32.8379 143.298 33.3746C143.069 33.9114 142.71 34.3653 142.22 34.7364C141.737 35.102 141.203 35.3249 140.618 35.4049C140.041 35.4794 139.477 35.4072 138.927 35.1884C138.39 34.9712 137.928 34.6063 137.541 34.0936ZM138.384 33.455C138.651 33.8089 138.964 34.0431 139.322 34.1577C139.692 34.274 140.067 34.2907 140.446 34.2079C140.83 34.1323 141.174 33.9798 141.477 33.7506C141.779 33.5214 142.019 33.2318 142.197 32.8817C142.38 32.5389 142.462 32.1756 142.445 31.7918C142.434 31.4026 142.298 31.0347 142.037 30.688C141.776 30.3414 141.46 30.1099 141.089 29.9936C140.726 29.8718 140.352 29.8487 139.967 29.9244C139.595 30.0018 139.255 30.1578 138.945 30.3925C138.642 30.6217 138.402 30.9113 138.225 31.2614C138.054 31.606 137.972 31.9693 137.977 32.3513C137.987 32.7405 138.123 33.1084 138.384 33.455Z" fill="#ACACAC"/>
<path d="M142.645 41.0869L142.041 40.0257L146.981 37.1978C147.036 37.1664 147.099 37.1304 147.169 37.09C147.24 37.0496 147.351 36.9806 147.504 36.883L148.081 37.897L147.219 38.4374C147.394 38.452 147.599 38.4914 147.833 38.5555C148.071 38.6274 148.313 38.7498 148.557 38.9228C148.801 39.0958 149.017 39.3474 149.205 39.6775C149.272 39.7954 149.325 39.906 149.363 40.0093C149.405 40.1205 149.436 40.2283 149.453 40.3327L148.331 40.6625C148.305 40.4896 148.23 40.2931 148.104 40.073C147.934 39.7743 147.701 39.5479 147.406 39.394C147.122 39.2435 146.815 39.1693 146.483 39.1715C146.152 39.1736 145.833 39.2622 145.527 39.4373L142.645 41.0869Z" fill="#ACACAC"/>
<path d="M149.423 50.9713L149.015 51.8931C148.881 51.8516 148.685 51.7572 148.427 51.61C148.178 51.4593 147.914 51.2366 147.634 50.9418C147.366 50.6519 147.13 50.2606 146.924 49.7679C146.673 49.1667 146.581 48.5823 146.647 48.0147C146.722 47.4436 146.938 46.9308 147.297 46.4762C147.667 46.0265 148.16 45.6723 148.777 45.4136C149.343 45.176 149.906 45.0821 150.465 45.132C151.028 45.1903 151.533 45.3806 151.981 45.703C152.441 46.0302 152.789 46.4777 153.026 47.0455C153.309 47.7219 153.375 48.337 153.224 48.8908C153.074 49.4446 152.78 49.9259 152.344 50.3346C151.908 50.7434 151.394 51.0718 150.802 51.32L148.883 46.7232C148.545 46.8749 148.275 47.0961 148.073 47.3867C147.88 47.6739 147.764 47.9927 147.724 48.343C147.696 48.6982 147.752 49.0428 147.891 49.3768C148.097 49.8694 148.349 50.2394 148.648 50.4868C148.951 50.7426 149.209 50.9041 149.423 50.9713ZM149.72 46.372L151.153 49.8039C151.589 49.5817 151.906 49.2623 152.104 48.8456C152.302 48.4289 152.293 47.9617 152.077 47.444C151.927 47.0849 151.719 46.8092 151.452 46.6167C151.186 46.4243 150.898 46.3095 150.589 46.2724C150.292 46.2401 150.002 46.2733 149.72 46.372Z" fill="#ACACAC"/>
<path d="M153.747 66.3375L153.101 67.2088C152.742 66.987 152.428 66.6882 152.161 66.3123C151.903 65.9349 151.728 65.4831 151.636 64.9571C151.519 64.2883 151.56 63.6838 151.759 63.1434C151.96 62.612 152.281 62.1697 152.724 61.8164C153.176 61.4616 153.721 61.228 154.362 61.1157C154.967 61.0096 155.542 61.0511 156.089 61.2402C156.635 61.4293 157.098 61.7433 157.477 62.1822C157.867 62.6285 158.117 63.1682 158.227 63.8013C158.319 64.3274 158.306 64.8074 158.19 65.2414C158.073 65.6754 157.879 66.0632 157.609 66.4047L156.711 65.7489C156.909 65.5211 157.052 65.2617 157.139 64.9708C157.225 64.6799 157.237 64.3517 157.173 63.9861C157.098 63.5581 156.927 63.2068 156.659 62.9321C156.402 62.6649 156.09 62.4806 155.724 62.3794C155.358 62.2781 154.975 62.2626 154.574 62.3328C154.192 62.3999 153.841 62.5441 153.522 62.7654C153.214 62.9941 152.979 63.2787 152.819 63.6193C152.658 63.9599 152.615 64.3442 152.69 64.7722C152.754 65.1378 152.877 65.4516 153.06 65.7135C153.254 65.9828 153.483 66.1908 153.747 66.3375Z" fill="#ACACAC"/>
<path d="M152.818 74.4526C152.795 73.8103 152.924 73.2306 153.205 72.7136C153.494 72.1963 153.886 71.7841 154.382 71.477C154.886 71.1787 155.441 71.019 156.046 70.9979C156.659 70.9765 157.224 71.0973 157.739 71.3601C158.254 71.632 158.67 72.0161 158.985 72.5123C159.309 73.0082 159.483 73.5773 159.505 74.2196C159.527 74.8619 159.394 75.4372 159.104 75.9455C158.824 76.4624 158.436 76.8745 157.941 77.1816C157.445 77.4887 156.891 77.6529 156.277 77.6743C155.672 77.6954 155.108 77.5701 154.583 77.2985C154.068 77.0266 153.648 76.6427 153.324 76.1468C153.009 75.6596 152.84 75.0949 152.818 74.4526ZM153.874 74.4158C153.889 74.8591 154.01 75.2307 154.237 75.5308C154.474 75.8395 154.771 76.0692 155.129 76.2198C155.487 76.3794 155.855 76.4526 156.234 76.4394C156.613 76.4262 156.976 76.3276 157.322 76.1434C157.668 75.9683 157.944 75.7187 158.15 75.3945C158.364 75.07 158.464 74.6906 158.449 74.2564C158.434 73.8222 158.308 73.4507 158.072 73.1419C157.844 72.8328 157.551 72.5984 157.193 72.4388C156.845 72.2879 156.476 72.2192 156.088 72.2328C155.709 72.246 155.347 72.3446 155.001 72.5288C154.664 72.7126 154.388 72.9622 154.173 73.2777C153.958 73.6022 153.858 73.9815 153.874 74.4158Z" fill="#ACACAC"/>
<path d="M153.012 83.4687L153.143 82.2538L158.759 82.8638C158.839 82.8726 158.92 82.8814 159.001 82.8901C159.091 82.8999 159.226 82.91 159.406 82.9205L159.281 84.0814L158.334 84.0195C158.475 84.1441 158.616 84.3052 158.758 84.5027C158.91 84.7012 159.029 84.9418 159.116 85.2245C159.212 85.5171 159.239 85.8569 159.197 86.2439C159.108 87.0628 158.8 87.644 158.273 87.9873C157.754 88.3316 157.091 88.4598 156.283 88.372L152.526 87.9639L152.657 86.749L156.32 87.1469C156.903 87.2103 157.344 87.1261 157.642 86.8944C157.947 86.6726 158.124 86.3368 158.173 85.8868C158.222 85.4278 158.141 85.0502 157.927 84.7539C157.723 84.4585 157.439 84.2319 157.074 84.074C156.709 83.925 156.324 83.8286 155.92 83.7847L153.012 83.4687Z" fill="#ACACAC"/>
<path d="M153.868 92.835L157.006 93.5731L157.266 92.4627L158.255 92.6953L157.995 93.8057L160 94.2771L159.722 95.4668L157.717 94.9954L157.296 96.7932L156.307 96.5606L156.728 94.7628L153.708 94.0526C153.216 93.9369 152.86 93.9322 152.64 94.0386C152.418 94.1538 152.274 94.3524 152.208 94.6344C152.155 94.8635 152.146 95.0613 152.181 95.2276C152.214 95.4028 152.285 95.5774 152.392 95.7515L151.54 96.1229C151.354 95.8095 151.24 95.5037 151.198 95.2057C151.146 94.9145 151.163 94.5838 151.249 94.2136C151.4 93.5703 151.687 93.1358 152.111 92.91C152.544 92.6863 153.129 92.6613 153.868 92.835Z" fill="#ACACAC"/>
<path d="M150.033 104.71L149.108 105.108C149.037 104.985 148.958 104.782 148.869 104.499C148.789 104.219 148.746 103.875 148.741 103.469C148.741 103.073 148.833 102.625 149.017 102.124C149.24 101.512 149.569 101.02 150.003 100.65C150.445 100.282 150.952 100.054 151.523 99.9647C152.1 99.8873 152.702 99.964 153.329 100.195C153.906 100.406 154.382 100.721 154.758 101.139C155.131 101.566 155.373 102.05 155.482 102.591C155.597 103.145 155.549 103.71 155.338 104.288C155.086 104.976 154.717 105.472 154.231 105.776C153.745 106.079 153.203 106.232 152.606 106.234C152.009 106.236 151.409 106.127 150.807 105.906L152.519 101.227C152.168 101.108 151.82 101.086 151.475 101.162C151.138 101.24 150.837 101.395 150.57 101.624C150.308 101.866 150.116 102.156 149.991 102.496C149.808 102.998 149.742 103.441 149.793 103.826C149.841 104.22 149.921 104.515 150.033 104.71ZM153.371 101.54L152.093 105.033C152.563 105.168 153.012 105.149 153.44 104.979C153.868 104.808 154.178 104.46 154.371 103.933C154.505 103.567 154.539 103.223 154.475 102.901C154.41 102.578 154.277 102.298 154.075 102.06C153.879 101.833 153.644 101.66 153.371 101.54Z" fill="#ACACAC"/>
<path d="M146.296 109.462L146.865 108.382L151.86 111.024C151.932 111.062 152.004 111.1 152.076 111.138C152.155 111.181 152.277 111.24 152.441 111.317L151.898 112.349L151.04 111.942C151.125 112.11 151.198 112.312 151.257 112.548C151.324 112.788 151.347 113.056 151.324 113.351C151.305 113.658 151.205 113.984 151.024 114.328C150.641 115.057 150.14 115.483 149.524 115.607C148.915 115.735 148.251 115.609 147.532 115.229L144.19 113.461L144.759 112.38L148.018 114.104C148.537 114.379 148.977 114.463 149.339 114.358C149.705 114.265 149.993 114.018 150.204 113.618C150.418 113.209 150.481 112.828 150.392 112.474C150.311 112.124 150.13 111.808 149.849 111.527C149.565 111.253 149.242 111.021 148.883 110.831L146.296 109.462Z" fill="#ACACAC"/>
<path d="M143.48 118.758L146.122 120.61L146.774 119.676L147.606 120.26L146.954 121.194L148.641 122.378L147.942 123.379L146.255 122.196L145.199 123.709L144.366 123.125L145.423 121.612L142.881 119.829C142.467 119.538 142.138 119.401 141.895 119.419C141.646 119.443 141.439 119.574 141.273 119.811C141.139 120.004 141.057 120.184 141.028 120.352C140.994 120.527 140.995 120.715 141.03 120.917L140.102 120.945C140.045 120.584 140.052 120.258 140.124 119.966C140.183 119.676 140.321 119.375 140.539 119.064C140.917 118.522 141.344 118.226 141.821 118.174C142.306 118.127 142.859 118.322 143.48 118.758Z" fill="#ACACAC"/>
<path d="M138.546 123.616L138.662 124.715C138.343 124.735 138.028 124.818 137.718 124.966C137.407 125.114 137.114 125.343 136.839 125.655C136.57 125.961 136.393 126.257 136.308 126.544C136.231 126.838 136.297 127.077 136.506 127.263C136.655 127.395 136.81 127.459 136.969 127.456C137.129 127.452 137.329 127.382 137.57 127.245C137.818 127.115 138.135 126.912 138.521 126.638C138.798 126.448 139.088 126.282 139.393 126.142C139.704 126.007 140.017 125.946 140.332 125.958C140.653 125.977 140.962 126.118 141.26 126.382C141.564 126.651 141.744 126.967 141.798 127.329C141.846 127.698 141.796 128.07 141.646 128.445C141.503 128.826 141.294 129.172 141.019 129.484C140.667 129.885 140.308 130.183 139.942 130.378C139.584 130.58 139.217 130.702 138.842 130.745L138.652 129.689C138.906 129.66 139.173 129.576 139.452 129.437C139.726 129.305 139.988 129.096 140.239 128.811C140.496 128.52 140.655 128.244 140.716 127.983C140.776 127.723 140.698 127.497 140.482 127.305C140.279 127.125 140.022 127.109 139.711 127.257C139.407 127.41 139.047 127.635 138.63 127.93C138.299 128.168 137.972 128.356 137.647 128.491C137.324 128.639 137.005 128.701 136.689 128.676C136.368 128.657 136.056 128.513 135.751 128.243C135.44 127.967 135.26 127.639 135.21 127.257C135.162 126.888 135.212 126.503 135.36 126.103C135.515 125.709 135.745 125.338 136.05 124.992C136.839 124.097 137.671 123.638 138.546 123.616Z" fill="#ACACAC"/>
</svg>
