<svg width="50" height="50" viewBox="0 0 50 50" fill="none" xmlns="http://www.w3.org/2000/svg">
<rect width="50" height="50" rx="10" fill="#DA00F0"/>
<path opacity="0.2" d="M28 19C28 19.5933 27.8241 20.1734 27.4944 20.6667C27.1648 21.1601 26.6962 21.5446 26.1481 21.7716C25.5999 21.9987 24.9967 22.0581 24.4147 21.9424C23.8328 21.8266 23.2982 21.5409 22.8787 21.1213C22.4591 20.7018 22.1734 20.1672 22.0576 19.5853C21.9419 19.0033 22.0013 18.4001 22.2284 17.8519C22.4554 17.3038 22.8399 16.8352 23.3333 16.5056C23.8266 16.1759 24.4067 16 25 16C25.7957 16 26.5587 16.3161 27.1213 16.8787C27.6839 17.4413 28 18.2044 28 19ZM14 28C13.4067 28 12.8266 28.1759 12.3333 28.5056C11.8399 28.8352 11.4554 29.3038 11.2284 29.8519C11.0013 30.4001 10.9419 31.0033 11.0576 31.5853C11.1734 32.1672 11.4591 32.7018 11.8787 33.1213C12.2982 33.5409 12.8328 33.8266 13.4147 33.9424C13.9967 34.0581 14.5999 33.9987 15.1481 33.7716C15.6962 33.5446 16.1648 33.1601 16.4944 32.6667C16.8241 32.1734 17 31.5933 17 31C17 30.2044 16.6839 29.4413 16.1213 28.8787C15.5587 28.3161 14.7957 28 14 28ZM36 28C35.4067 28 34.8266 28.1759 34.3333 28.5056C33.8399 28.8352 33.4554 29.3038 33.2284 29.8519C33.0013 30.4001 32.9419 31.0033 33.0576 31.5853C33.1734 32.1672 33.4591 32.7018 33.8787 33.1213C34.2982 33.5409 34.8328 33.8266 35.4147 33.9424C35.9967 34.0581 36.5999 33.9987 37.1481 33.7716C37.6962 33.5446 38.1648 33.1601 38.4944 32.6667C38.8241 32.1734 39 31.5933 39 31C39 30.2044 38.6839 29.4413 38.1213 28.8787C37.5587 28.3161 36.7957 28 36 28Z" fill="white"/>
<path d="M36.6338 27.0513C35.8912 24.1634 34.1073 21.652 31.625 20H39C39.2652 20 39.5196 19.8947 39.7071 19.7071C39.8946 19.5196 40 19.2652 40 19C40 18.7348 39.8946 18.4805 39.7071 18.2929C39.5196 18.1054 39.2652 18 39 18H28.875C28.6547 17.1396 28.1543 16.377 27.4527 15.8324C26.7511 15.2878 25.8882 14.9922 25 14.9922C24.1118 14.9922 23.2489 15.2878 22.5473 15.8324C21.8457 16.377 21.3453 17.1396 21.125 18H11C10.7348 18 10.4804 18.1054 10.2929 18.2929C10.1054 18.4805 10 18.7348 10 19C10 19.2652 10.1054 19.5196 10.2929 19.7071C10.4804 19.8947 10.7348 20 11 20H18.375C15.8927 21.652 14.1088 24.1634 13.3663 27.0513C12.4061 27.2045 11.5346 27.7022 10.9148 28.4513C10.2949 29.2004 9.96912 30.1496 9.99833 31.1215C10.0275 32.0933 10.4097 33.0213 11.0735 33.7318C11.7372 34.4424 12.637 34.8868 13.6046 34.9821C14.5722 35.0773 15.5414 34.8169 16.331 34.2494C17.1205 33.682 17.6763 32.8464 17.8945 31.8989C18.1127 30.9514 17.9783 29.9568 17.5164 29.1012C17.0545 28.2456 16.2969 27.5875 15.385 27.25C15.8144 25.7697 16.5776 24.4076 17.6161 23.2686C18.6546 22.1295 19.9405 21.244 21.375 20.68C21.6959 21.3721 22.2081 21.9579 22.851 22.3684C23.494 22.779 24.2409 22.9971 25.0038 22.9971C25.7666 22.9971 26.5135 22.779 27.1565 22.3684C27.7994 21.9579 28.3116 21.3721 28.6325 20.68C30.0656 21.2449 31.3501 22.1309 32.3872 23.2699C33.4243 24.4088 34.1864 25.7704 34.615 27.25C33.7027 27.5864 32.9442 28.2435 32.4812 29.0986C32.0183 29.9536 31.8827 30.948 32.0997 31.8958C32.3167 32.8436 32.8714 33.6799 33.6603 34.2483C34.4491 34.8167 35.418 35.0784 36.3858 34.9843C37.3535 34.8902 38.2539 34.4469 38.9185 33.7371C39.5831 33.0274 39.9664 32.0999 39.9968 31.1281C40.0272 30.1562 39.7026 29.2066 39.0836 28.4567C38.4646 27.7069 37.5937 27.2081 36.6338 27.0538V27.0513ZM16 31C16 31.3956 15.8827 31.7823 15.6629 32.1112C15.4432 32.4401 15.1308 32.6964 14.7654 32.8478C14.3999 32.9992 13.9978 33.0388 13.6098 32.9616C13.2219 32.8844 12.8655 32.6939 12.5858 32.4142C12.3061 32.1345 12.1156 31.7782 12.0384 31.3902C11.9613 31.0022 12.0009 30.6001 12.1522 30.2347C12.3036 29.8692 12.56 29.5569 12.8889 29.3371C13.2178 29.1173 13.6044 29 14 29C14.5304 29 15.0391 29.2107 15.4142 29.5858C15.7893 29.9609 16 30.4696 16 31ZM25 21C24.6044 21 24.2178 20.8827 23.8889 20.663C23.56 20.4432 23.3036 20.1308 23.1522 19.7654C23.0009 19.3999 22.9613 18.9978 23.0384 18.6099C23.1156 18.2219 23.3061 17.8655 23.5858 17.5858C23.8655 17.3061 24.2219 17.1156 24.6098 17.0385C24.9978 16.9613 25.3999 17.0009 25.7654 17.1523C26.1308 17.3036 26.4432 17.56 26.6629 17.8889C26.8827 18.2178 27 18.6045 27 19C27 19.5305 26.7893 20.0392 26.4142 20.4142C26.0391 20.7893 25.5304 21 25 21ZM36 33C35.6044 33 35.2178 32.8827 34.8889 32.663C34.56 32.4432 34.3036 32.1309 34.1522 31.7654C34.0009 31.3999 33.9613 30.9978 34.0384 30.6098C34.1156 30.2219 34.3061 29.8655 34.5858 29.5858C34.8655 29.3061 35.2219 29.1156 35.6098 29.0385C35.9978 28.9613 36.3999 29.0009 36.7654 29.1523C37.1308 29.3036 37.4432 29.56 37.6629 29.8889C37.8827 30.2178 38 30.6045 38 31C38 31.5305 37.7893 32.0392 37.4142 32.4142C37.0391 32.7893 36.5304 33 36 33Z" fill="white"/>
</svg>
