<svg width="50" height="50" viewBox="0 0 50 50" fill="none" xmlns="http://www.w3.org/2000/svg">
<rect width="50" height="50" rx="10" fill="#3854D6"/>
<path opacity="0.2" d="M39 24.5C39.0004 25.7411 38.6159 26.9518 37.8995 27.9652C37.1831 28.9787 36.1701 29.7451 35 30.1588V31C35 32.3261 34.4732 33.5979 33.5355 34.5355C32.5979 35.4732 31.3261 36 30 36C28.6739 36 27.4021 35.4732 26.4645 34.5355C25.5268 33.5979 25 32.3261 25 31C25 32.3261 24.4732 33.5979 23.5355 34.5355C22.5979 35.4732 21.3261 36 20 36C18.6739 36 17.4021 35.4732 16.4645 34.5355C15.5268 33.5979 15 32.3261 15 31V30.1588C13.8289 29.7459 12.8147 28.98 12.0973 27.9664C11.3799 26.9529 10.9946 25.7417 10.9946 24.5C10.9946 23.2583 11.3799 22.0471 12.0973 21.0336C12.8147 20.02 13.8289 19.2541 15 18.8413V18C15 16.6739 15.5268 15.4021 16.4645 14.4645C17.4021 13.5268 18.6739 13 20 13C21.3261 13 22.5979 13.5268 23.5355 14.4645C24.4732 15.4021 25 16.6739 25 18C25 16.6739 25.5268 15.4021 26.4645 14.4645C27.4021 13.5268 28.6739 13 30 13C31.3261 13 32.5979 13.5268 33.5355 14.4645C34.4732 15.4021 35 16.6739 35 18V18.8413C36.1701 19.2549 37.1831 20.0213 37.8995 21.0348C38.6159 22.0482 39.0004 23.2589 39 24.5Z" fill="white"/>
<path d="M40 24.5C39.9987 23.1754 39.6223 21.8783 38.9144 20.7587C38.2065 19.6391 37.1961 18.7429 36 18.1738V18C35.9989 16.7115 35.583 15.4576 34.8139 14.4239C34.0448 13.3901 32.9633 12.6314 31.7295 12.26C30.4957 11.8886 29.1751 11.9243 27.9632 12.3617C26.7512 12.7991 25.7123 13.615 25 14.6888C24.2878 13.615 23.2488 12.7991 22.0369 12.3617C20.8249 11.9243 19.5043 11.8886 18.2705 12.26C17.0368 12.6314 15.9553 13.3901 15.1862 14.4239C14.4171 15.4576 14.0012 16.7115 14 18V18.1738C12.8029 18.7414 11.7915 19.637 11.0833 20.7567C10.375 21.8763 9.99908 23.1739 9.99908 24.4987C9.99908 25.8236 10.375 27.1212 11.0833 28.2408C11.7915 29.3605 12.8029 30.2561 14 30.8237V31C14.0012 32.2885 14.4171 33.5424 15.1862 34.5761C15.9553 35.6099 17.0368 36.3686 18.2705 36.74C19.5043 37.1114 20.8249 37.0757 22.0369 36.6383C23.2488 36.2009 24.2878 35.385 25 34.3113C25.7123 35.385 26.7512 36.2009 27.9632 36.6383C29.1751 37.0757 30.4957 37.1114 31.7295 36.74C32.9633 36.3686 34.0448 35.6099 34.8139 34.5761C35.583 33.5424 35.9989 32.2885 36 31V30.8237C37.1959 30.255 38.2063 29.3592 38.9142 28.2401C39.622 27.121 39.9985 25.8242 40 24.5ZM20 35C19.0137 34.9999 18.0622 34.6353 17.3283 33.9764C16.5944 33.3175 16.1298 32.4106 16.0238 31.43C16.3472 31.4761 16.6734 31.4995 17 31.5H18C18.2652 31.5 18.5196 31.3946 18.7071 31.2071C18.8947 31.0196 19 30.7652 19 30.5C19 30.2348 18.8947 29.9804 18.7071 29.7929C18.5196 29.6054 18.2652 29.5 18 29.5H17C15.8195 29.5014 14.6765 29.085 13.7735 28.3246C12.8705 27.5641 12.2657 26.5087 12.0661 25.3451C11.8666 24.1816 12.0852 22.9849 12.6832 21.9671C13.2813 20.9492 14.2202 20.1758 15.3338 19.7838C15.5286 19.7148 15.6973 19.5871 15.8166 19.4183C15.9359 19.2495 16 19.0479 16 18.8413V18C16 16.9391 16.4214 15.9217 17.1716 15.1716C17.9217 14.4214 18.9392 14 20 14C21.0609 14 22.0783 14.4214 22.8284 15.1716C23.5786 15.9217 24 16.9391 24 18V26.5325C22.9019 25.5449 21.4769 24.9989 20 25C19.7348 25 19.4805 25.1054 19.2929 25.2929C19.1054 25.4804 19 25.7348 19 26C19 26.2652 19.1054 26.5196 19.2929 26.7071C19.4805 26.8946 19.7348 27 20 27C21.0609 27 22.0783 27.4214 22.8284 28.1716C23.5786 28.9217 24 29.9391 24 31C24 32.0609 23.5786 33.0783 22.8284 33.8284C22.0783 34.5786 21.0609 35 20 35ZM33 29.5H32C31.7348 29.5 31.4805 29.6054 31.2929 29.7929C31.1054 29.9804 31 30.2348 31 30.5C31 30.7652 31.1054 31.0196 31.2929 31.2071C31.4805 31.3946 31.7348 31.5 32 31.5H33C33.3267 31.4995 33.6529 31.4761 33.9763 31.43C33.8932 32.1983 33.5893 32.9262 33.1014 33.5255C32.6135 34.1248 31.9624 34.5699 31.2269 34.807C30.4913 35.0442 29.7028 35.0632 28.9568 34.8617C28.2107 34.6603 27.5389 34.247 27.0227 33.6719C26.5065 33.0967 26.1679 32.3844 26.0479 31.621C25.928 30.8575 26.0317 30.0757 26.3467 29.3699C26.6616 28.6642 27.1742 28.0648 27.8226 27.6442C28.4709 27.2237 29.2272 26.9999 30 27C30.2652 27 30.5196 26.8946 30.7071 26.7071C30.8947 26.5196 31 26.2652 31 26C31 25.7348 30.8947 25.4804 30.7071 25.2929C30.5196 25.1054 30.2652 25 30 25C28.5231 24.9989 27.0981 25.5449 26 26.5325V18C26 16.9391 26.4215 15.9217 27.1716 15.1716C27.9217 14.4214 28.9392 14 30 14C31.0609 14 32.0783 14.4214 32.8284 15.1716C33.5786 15.9217 34 16.9391 34 18V18.8413C34.0001 19.0479 34.0641 19.2495 34.1834 19.4183C34.3028 19.5871 34.4714 19.7148 34.6663 19.7838C35.7798 20.1758 36.7187 20.9492 37.3168 21.9671C37.9149 22.9849 38.1335 24.1816 37.9339 25.3451C37.7344 26.5087 37.1296 27.5641 36.2265 28.3246C35.3235 29.085 34.1806 29.5014 33 29.5ZM35 23C35 23.2652 34.8947 23.5196 34.7071 23.7071C34.5196 23.8946 34.2652 24 34 24H33.5C32.3065 24 31.162 23.5259 30.318 22.682C29.4741 21.8381 29 20.6935 29 19.5V19C29 18.7348 29.1054 18.4804 29.2929 18.2929C29.4805 18.1054 29.7348 18 30 18C30.2652 18 30.5196 18.1054 30.7071 18.2929C30.8947 18.4804 31 18.7348 31 19V19.5C31 20.163 31.2634 20.7989 31.7323 21.2678C32.2011 21.7366 32.837 22 33.5 22H34C34.2652 22 34.5196 22.1054 34.7071 22.2929C34.8947 22.4804 35 22.7348 35 23ZM16.5 24H16C15.7348 24 15.4805 23.8946 15.2929 23.7071C15.1054 23.5196 15 23.2652 15 23C15 22.7348 15.1054 22.4804 15.2929 22.2929C15.4805 22.1054 15.7348 22 16 22H16.5C17.1631 22 17.7989 21.7366 18.2678 21.2678C18.7366 20.7989 19 20.163 19 19.5V19C19 18.7348 19.1054 18.4804 19.2929 18.2929C19.4805 18.1054 19.7348 18 20 18C20.2652 18 20.5196 18.1054 20.7071 18.2929C20.8947 18.4804 21 18.7348 21 19V19.5C21 20.6935 20.5259 21.8381 19.682 22.682C18.8381 23.5259 17.6935 24 16.5 24Z" fill="white"/>
</svg>
