<svg width="50" height="50" viewBox="0 0 50 50" fill="none" xmlns="http://www.w3.org/2000/svg">
<rect width="50" height="50" rx="10" fill="#24F0BE"/>
<path opacity="0.2" d="M39 25C31 25 39 36 31 36H19C11 36 19 25 11 25C19 25 11 14 19 14H31C39 14 31 25 39 25Z" fill="white"/>
<path d="M14.3975 25C14.8213 25.3486 15.1628 25.7865 15.3975 26.2825C15.9975 27.52 15.9975 29.0325 15.9975 30.5C15.9975 33.5387 16.1225 35 18.9975 35C19.2627 35 19.5171 35.1054 19.7046 35.2929C19.8921 35.4804 19.9975 35.7348 19.9975 36C19.9975 36.2652 19.8921 36.5196 19.7046 36.7071C19.5171 36.8946 19.2627 37 18.9975 37C16.8125 37 15.3325 36.2325 14.5975 34.7175C13.9975 33.48 13.9975 31.9675 13.9975 30.5C13.9975 27.4613 13.8725 26 10.9975 26C10.7323 26 10.4779 25.8946 10.2904 25.7071C10.1029 25.5196 9.9975 25.2652 9.9975 25C9.9975 24.7348 10.1029 24.4804 10.2904 24.2929C10.4779 24.1054 10.7323 24 10.9975 24C13.8725 24 13.9975 22.5387 13.9975 19.5C13.9975 18.035 13.9975 16.52 14.5975 15.2825C15.335 13.7675 16.815 13 19 13C19.2652 13 19.5196 13.1054 19.7071 13.2929C19.8946 13.4804 20 13.7348 20 14C20 14.2652 19.8946 14.5196 19.7071 14.7071C19.5196 14.8946 19.2652 15 19 15C16.125 15 16 16.4613 16 19.5C16 20.965 16 22.48 15.4 23.7175C15.1645 24.2137 14.8222 24.6517 14.3975 25ZM39 24C36.125 24 36 22.5387 36 19.5C36 18.035 36 16.52 35.4 15.2825C34.665 13.7675 33.185 13 31 13C30.7348 13 30.4804 13.1054 30.2929 13.2929C30.1054 13.4804 30 13.7348 30 14C30 14.2652 30.1054 14.5196 30.2929 14.7071C30.4804 14.8946 30.7348 15 31 15C33.875 15 34 16.4613 34 19.5C34 20.965 34 22.48 34.6 23.7175C34.8347 24.2135 35.1762 24.6514 35.6 25C35.1762 25.3486 34.8347 25.7865 34.6 26.2825C34 27.52 34 29.0325 34 30.5C34 33.5387 33.875 35 31 35C30.7348 35 30.4804 35.1054 30.2929 35.2929C30.1054 35.4804 30 35.7348 30 36C30 36.2652 30.1054 36.5196 30.2929 36.7071C30.4804 36.8946 30.7348 37 31 37C33.185 37 34.665 36.2325 35.4 34.7175C36 33.48 36 31.9675 36 30.5C36 27.4613 36.125 26 39 26C39.2652 26 39.5196 25.8946 39.7071 25.7071C39.8946 25.5196 40 25.2652 40 25C40 24.7348 39.8946 24.4804 39.7071 24.2929C39.5196 24.1054 39.2652 24 39 24Z" fill="white"/>
</svg>
