<svg width="107" height="50" viewBox="0 0 107 50" fill="none" xmlns="http://www.w3.org/2000/svg">
<path d="M0 0H23.8831C31.7972 0 38.2129 6.38377 38.2129 14.2586C38.2129 22.1333 31.7972 28.5171 23.8831 28.5171H7.16492C3.20785 28.5171 0 25.3252 0 21.3878V0Z" fill="#EF0D33"/>
<path d="M10.3612 50C4.63699 50 0 45.3914 0 39.7022C0 33.5264 5.0402 28.5171 11.2541 28.5171H20.7224V39.7022C20.7224 45.3914 16.0854 50 10.3612 50Z" fill="url(#paint0_linear_173_267)"/>
<path d="M56.0765 39.9788V31.1116H62.4345C68.875 31.1116 72.343 26.9681 72.343 21.83C72.343 16.6506 68.875 12.3413 62.4345 12.3413H47.7368V39.9788H56.0765ZM63.8795 21.7472C63.8795 23.1974 62.7647 24.1504 61.361 24.1504H56.0765V19.3025H61.361C62.7647 19.3025 63.8795 20.2555 63.8795 21.7472Z" fill="#111517"/>
<path d="M78.6229 17.8937C80.9349 17.8937 82.7928 16.0291 82.7928 13.7087C82.7928 11.3883 80.9349 9.52368 78.6229 9.52368C76.3109 9.52368 74.4531 11.3883 74.4531 13.7087C74.4531 16.0291 76.3109 17.8937 78.6229 17.8937ZM82.3386 39.9788V19.9654H74.9072V39.9788H82.3386Z" fill="#111517"/>
<path d="M106.956 39.9788V19.9654H99.5248V22.0787C97.9559 20.1726 95.9329 19.4682 93.9099 19.4682C88.9969 19.4682 85.1161 23.3217 85.1161 29.9514C85.1161 36.8297 89.0795 40.4761 93.9099 40.4761C95.9329 40.4761 97.832 39.7717 99.5248 37.8656V39.9788H106.956ZM99.5248 32.5204C98.8229 33.3906 97.4192 33.8878 96.4283 33.8878C94.4053 33.8878 92.7126 32.4376 92.7126 29.9514C92.7126 27.4653 94.4053 26.0979 96.4283 26.0979C97.4192 26.0979 98.8229 26.5537 99.5248 27.4239V32.5204Z" fill="#111517"/>
<defs>
<linearGradient id="paint0_linear_173_267" x1="17.7083" y1="23.2143" x2="10.3612" y2="36.0119" gradientUnits="userSpaceOnUse">
<stop stop-color="#A90722"/>
<stop offset="1" stop-color="#EF0D33"/>
</linearGradient>
</defs>
</svg>
