<svg width="50" height="50" viewBox="0 0 50 50" fill="none" xmlns="http://www.w3.org/2000/svg">
<rect width="50" height="50" rx="10" fill="#F08F24"/>
<path opacity="0.2" d="M37 16V35H13V15H36C36.2652 15 36.5196 15.1054 36.7071 15.2929C36.8946 15.4804 37 15.7348 37 16Z" fill="white"/>
<path d="M38 35C38 35.2652 37.8946 35.5196 37.7071 35.7071C37.5196 35.8946 37.2652 36 37 36H13C12.7348 36 12.4804 35.8946 12.2929 35.7071C12.1054 35.5196 12 35.2652 12 35V15C12 14.7348 12.1054 14.4804 12.2929 14.2929C12.4804 14.1054 12.7348 14 13 14C13.2652 14 13.5196 14.1054 13.7071 14.2929C13.8946 14.4804 14 14.7348 14 15V28.5863L20.2925 22.2925C20.3854 22.1995 20.4957 22.1258 20.6171 22.0754C20.7385 22.0251 20.8686 21.9992 21 21.9992C21.1314 21.9992 21.2615 22.0251 21.3829 22.0754C21.5043 22.1258 21.6146 22.1995 21.7075 22.2925L25 25.5863L31.5863 19H29C28.7348 19 28.4804 18.8946 28.2929 18.7071C28.1054 18.5196 28 18.2652 28 18C28 17.7348 28.1054 17.4804 28.2929 17.2929C28.4804 17.1054 28.7348 17 29 17H34C34.2652 17 34.5196 17.1054 34.7071 17.2929C34.8946 17.4804 35 17.7348 35 18V23C35 23.2652 34.8946 23.5196 34.7071 23.7071C34.5196 23.8946 34.2652 24 34 24C33.7348 24 33.4804 23.8946 33.2929 23.7071C33.1054 23.5196 33 23.2652 33 23V20.4137L25.7075 27.7075C25.6146 27.8005 25.5043 27.8742 25.3829 27.9246C25.2615 27.9749 25.1314 28.0008 25 28.0008C24.8686 28.0008 24.7385 27.9749 24.6171 27.9246C24.4957 27.8742 24.3854 27.8005 24.2925 27.7075L21 24.4137L14 31.4137V34H37C37.2652 34 37.5196 34.1054 37.7071 34.2929C37.8946 34.4804 38 34.7348 38 35Z" fill="white"/>
</svg>
