<svg width="150" height="151" viewBox="0 0 150 151" fill="none" xmlns="http://www.w3.org/2000/svg">
<path opacity="0.2" d="M75 19.1742C63.8748 19.1742 52.9994 22.4732 43.7492 28.654C34.4989 34.8349 27.2892 43.6199 23.0318 53.8983C18.7743 64.1766 17.6604 75.4866 19.8308 86.398C22.0012 97.3095 27.3585 107.332 35.2252 115.199C43.0919 123.066 53.1147 128.423 64.0262 130.593C74.9376 132.764 86.2476 131.65 96.5259 127.392C106.804 123.135 115.589 115.925 121.77 106.675C127.951 97.4248 131.25 86.5494 131.25 75.4242C131.25 60.5058 125.324 46.1984 114.775 35.6494C104.226 25.1005 89.9184 19.1742 75 19.1742ZM65.625 94.1742V56.6742L93.75 75.4242L65.625 94.1742Z" fill="#EF0D33"/>
<path d="M75 14.4867C62.9477 14.4867 51.1661 18.0606 41.1449 24.7565C31.1238 31.4524 23.3133 40.9695 18.7011 52.1044C14.0889 63.2393 12.8821 75.4918 15.2334 87.3125C17.5847 99.1332 23.3884 109.991 31.9107 118.514C40.4329 127.036 51.291 132.84 63.1117 135.191C74.9324 137.542 87.1849 136.335 98.3198 131.723C109.455 127.111 118.972 119.3 125.668 109.279C132.364 99.2581 135.938 87.4765 135.938 75.4242C135.92 59.2678 129.495 43.778 118.07 32.3537C106.646 20.9294 91.1564 14.5038 75 14.4867ZM75 126.987C64.8019 126.987 54.8328 123.963 46.3534 118.297C37.874 112.631 31.2651 104.578 27.3625 95.1563C23.4598 85.7345 22.4387 75.367 24.4283 65.3649C26.4178 55.3627 31.3287 46.1751 38.5398 38.964C45.7509 31.7529 54.9385 26.842 64.9407 24.8525C74.9428 22.8629 85.3103 23.884 94.7321 27.7867C104.154 31.6893 112.207 38.2982 117.873 46.7776C123.538 55.257 126.562 65.2261 126.562 75.4242C126.547 89.0947 121.11 102.201 111.443 111.867C101.777 121.534 88.6705 126.971 75 126.987ZM96.3516 71.5218L68.2266 52.7718C67.5205 52.3007 66.6997 52.0302 65.8518 51.9891C65.004 51.9481 64.1609 52.138 63.4126 52.5386C62.6642 52.9393 62.0387 53.5356 61.6028 54.2639C61.1669 54.9923 60.9369 55.8254 60.9375 56.6742V94.1742C60.9369 95.023 61.1669 95.8561 61.6028 96.5844C62.0387 97.3128 62.6642 97.9091 63.4126 98.3098C64.1609 98.7104 65.004 98.9003 65.8518 98.8592C66.6997 98.8182 67.5205 98.5476 68.2266 98.0765L96.3516 79.3265C96.9945 78.8986 97.5218 78.3185 97.8865 77.6377C98.2512 76.9569 98.4421 76.1965 98.4421 75.4242C98.4421 74.6519 98.2512 73.8915 97.8865 73.2107C97.5218 72.5299 96.9945 71.9497 96.3516 71.5218ZM70.3125 85.4144V65.4633L85.3008 75.4242L70.3125 85.4144Z" fill="#EF0D33"/>
</svg>
