<svg width="35" height="35" viewBox="0 0 35 35" fill="none" xmlns="http://www.w3.org/2000/svg">
<path d="M0 16C0 10.3995 0 7.59921 1.08993 5.46009C2.04867 3.57847 3.57847 2.04867 5.46009 1.08993C7.59921 0 10.3995 0 16 0H19C24.6005 0 27.4008 0 29.5399 1.08993C31.4215 2.04867 32.9513 3.57847 33.9101 5.46009C35 7.59921 35 10.3995 35 16V19C35 24.6005 35 27.4008 33.9101 29.5399C32.9513 31.4215 31.4215 32.9513 29.5399 33.9101C27.4008 35 24.6005 35 19 35H16C10.3995 35 7.59921 35 5.46009 33.9101C3.57847 32.9513 2.04867 31.4215 1.08993 29.5399C0 27.4008 0 24.6005 0 19V16Z" fill="#ACACAC"/>
<g clip-path="url(#clip0_33_28)">
<path d="M23.8247 12.2752C23.8247 12.5041 23.7569 12.7279 23.6297 12.9182C23.5026 13.1085 23.3219 13.2569 23.1104 13.3445C22.899 13.4321 22.6663 13.455 22.4418 13.4104C22.2173 13.3657 22.0111 13.2555 21.8493 13.0937C21.6874 12.9318 21.5772 12.7256 21.5326 12.5011C21.4879 12.2767 21.5109 12.044 21.5985 11.8325C21.6861 11.6211 21.8345 11.4403 22.0248 11.3132C22.2151 11.1861 22.4389 11.1183 22.6677 11.1183C22.9746 11.1184 23.2688 11.2403 23.4857 11.4572C23.7027 11.6742 23.8246 11.9684 23.8247 12.2752ZM27.5 17.5L27.4998 17.5146L27.4341 21.7101C27.417 23.2228 26.8085 24.6688 25.7387 25.7386C24.669 26.8083 23.223 27.4169 21.7102 27.4339L17.4999 27.5001L17.4854 27.4998L13.2899 27.4343C11.7771 27.4172 10.3311 26.8087 9.26127 25.7389C8.19148 24.6692 7.58289 23.2232 7.56574 21.7104L7.49988 17.5L7.50016 17.4854L7.56569 13.2898C7.58289 11.777 8.19149 10.3311 9.26128 9.26133C10.3311 8.1916 11.7771 7.58306 13.2898 7.56594L17.4999 7.49994L17.5145 7.50022L21.71 7.56575C23.2228 7.58287 24.6687 8.19142 25.7385 9.26116C26.8082 10.3309 27.4168 11.7769 27.4339 13.2896L27.5 17.5ZM25.6375 17.5L25.5721 13.319C25.5605 12.2906 25.1468 11.3076 24.4196 10.5804C23.6923 9.85314 22.7093 9.43944 21.6809 9.42781L17.4999 9.36252L13.319 9.42781C12.2906 9.43946 11.3076 9.85317 10.5803 10.5804C9.85309 11.3076 9.43937 12.2906 9.4277 13.319L9.36241 17.5L9.4277 21.681C9.43933 22.7094 9.85304 23.6924 10.5803 24.4197C11.3075 25.1469 12.2906 25.5606 13.319 25.5722L17.4999 25.6375L21.6809 25.5722C22.7093 25.5606 23.6924 25.1469 24.4196 24.4197C25.1468 23.6924 25.5605 22.7094 25.5721 21.681L25.6375 17.5ZM22.6352 17.5C22.6352 18.5157 22.334 19.5085 21.7698 20.353C21.2055 21.1975 20.4035 21.8558 19.4651 22.2444C18.5267 22.6331 17.4942 22.7348 16.498 22.5367C15.5019 22.3385 14.5868 21.8494 13.8687 21.1312C13.1505 20.413 12.6614 19.498 12.4632 18.5018C12.2651 17.5057 12.3668 16.4731 12.7555 15.5348C13.1442 14.5964 13.8024 13.7944 14.6469 13.2301C15.4914 12.6659 16.4843 12.3647 17.4999 12.3647C18.8614 12.3662 20.1667 12.9078 21.1295 13.8705C22.0922 14.8332 22.6337 16.1385 22.6352 17.5ZM20.773 17.5C20.773 16.8527 20.581 16.2198 20.2214 15.6816C19.8617 15.1433 19.3505 14.7238 18.7524 14.4761C18.1544 14.2284 17.4963 14.1635 16.8613 14.2898C16.2264 14.4161 15.6432 14.7279 15.1855 15.1856C14.7277 15.6434 14.416 16.2266 14.2897 16.8615C14.1634 17.4964 14.2283 18.1545 14.476 18.7526C14.7237 19.3507 15.1433 19.8618 15.6815 20.2215C16.2198 20.5811 16.8526 20.7731 17.4999 20.7731C18.3677 20.7721 19.1996 20.4269 19.8132 19.8133C20.4268 19.1997 20.7719 18.3678 20.7729 17.5H20.773Z" fill="#F2F2F2"/>
</g>
<defs>
<clipPath id="clip0_33_28">
<rect width="20.0001" height="20" fill="white" transform="translate(7.49988 7.5)"/>
</clipPath>
</defs>
</svg>
