<svg width="35" height="35" viewBox="0 0 35 35" fill="none" xmlns="http://www.w3.org/2000/svg">
<path d="M0 16C0 10.3995 0 7.59921 1.08993 5.46009C2.04867 3.57847 3.57847 2.04867 5.46009 1.08993C7.59921 0 10.3995 0 16 0H19C24.6005 0 27.4008 0 29.5399 1.08993C31.4215 2.04867 32.9513 3.57847 33.9101 5.46009C35 7.59921 35 10.3995 35 16V19C35 24.6005 35 27.4008 33.9101 29.5399C32.9513 31.4215 31.4215 32.9513 29.5399 33.9101C27.4008 35 24.6005 35 19 35H16C10.3995 35 7.59921 35 5.46009 33.9101C3.57847 32.9513 2.04867 31.4215 1.08993 29.5399C0 27.4008 0 24.6005 0 19V16Z" fill="#ACACAC"/>
<path d="M9.50492 14.7598H13.021V25.3407H9.50492V14.7598ZM11.2865 9.6593C10.0831 9.6593 9.29688 10.4493 9.29688 11.4863C9.29688 12.5019 10.0601 13.3149 11.2405 13.3149H11.2629C12.4893 13.3149 13.253 12.5019 13.253 11.4863C13.23 10.4493 12.4893 9.6593 11.2865 9.6593ZM21.6539 14.5112C19.7875 14.5112 18.9514 15.5378 18.4849 16.2577V14.7598H14.9678C15.0144 15.7524 14.9678 25.3407 14.9678 25.3407H18.4849V19.4316C18.4849 19.1151 18.5079 18.7998 18.6005 18.5731C18.8551 17.9413 19.4338 17.287 20.4045 17.287C21.678 17.287 22.1866 18.2577 22.1866 19.6795V25.3407H25.7031V19.2734C25.7031 16.0234 23.9687 14.5112 21.6539 14.5112Z" fill="#F2F2F2"/>
</svg>
