<svg width="33" height="34" viewBox="0 0 33 34" fill="none" xmlns="http://www.w3.org/2000/svg">
<path d="M16.25 3.79688C13.6387 3.79688 11.086 4.57122 8.91474 6.022C6.7435 7.47278 5.05122 9.53483 4.05191 11.9474C3.0526 14.3599 2.79113 17.0146 3.30058 19.5758C3.81002 22.137 5.0675 24.4895 6.91399 26.336C8.76048 28.1825 11.113 29.44 13.6742 29.9494C16.2354 30.4589 18.8901 30.1974 21.3026 29.1981C23.7152 28.1988 25.7772 26.5065 27.228 24.3353C28.6788 22.164 29.4531 19.6113 29.4531 17C29.4494 13.4994 28.0572 10.1433 25.5819 7.66806C23.1067 5.1928 19.7506 3.80057 16.25 3.79688ZM17.2656 28.1249V20.0469H20.3125C20.5819 20.0469 20.8402 19.9399 21.0307 19.7494C21.2211 19.5589 21.3281 19.3006 21.3281 19.0312C21.3281 18.7619 21.2211 18.5036 21.0307 18.3131C20.8402 18.1226 20.5819 18.0156 20.3125 18.0156H17.2656V14.9688C17.2656 14.43 17.4796 13.9134 17.8606 13.5324C18.2415 13.1515 18.7582 12.9375 19.2969 12.9375H21.3281C21.5975 12.9375 21.8558 12.8305 22.0463 12.64C22.2368 12.4496 22.3438 12.1912 22.3438 11.9219C22.3438 11.6525 22.2368 11.3942 22.0463 11.2037C21.8558 11.0133 21.5975 10.9062 21.3281 10.9062H19.2969C18.2194 10.9062 17.1861 11.3343 16.4243 12.0961C15.6624 12.858 15.2344 13.8913 15.2344 14.9688V18.0156H12.1875C11.9181 18.0156 11.6598 18.1226 11.4694 18.3131C11.2789 18.5036 11.1719 18.7619 11.1719 19.0312C11.1719 19.3006 11.2789 19.5589 11.4694 19.7494C11.6598 19.9399 11.9181 20.0469 12.1875 20.0469H15.2344V28.1249C12.3713 27.8635 9.71924 26.5085 7.82976 24.3417C5.94029 22.1748 4.95889 19.3629 5.0897 16.4909C5.22052 13.619 6.45348 10.908 8.53211 8.92185C10.6108 6.93574 13.375 5.82741 16.25 5.82741C19.125 5.82741 21.8893 6.93574 23.9679 8.92185C26.0465 10.908 27.2795 13.619 27.4103 16.4909C27.5411 19.3629 26.5597 22.1748 24.6702 24.3417C22.7808 26.5085 20.1287 27.8635 17.2656 28.1249Z" fill="white"/>
</svg>
