<svg width="33" height="34" viewBox="0 0 33 34" fill="none" xmlns="http://www.w3.org/2000/svg">
<path d="M16.75 10.9062C15.5448 10.9062 14.3666 11.2636 13.3645 11.9332C12.3624 12.6028 11.5813 13.5545 11.1201 14.668C10.6589 15.7815 10.5382 17.0068 10.7733 18.1888C11.0085 19.3709 11.5888 20.4567 12.4411 21.3089C13.2933 22.1612 14.3791 22.7415 15.5612 22.9767C16.7432 23.2118 17.9685 23.0911 19.082 22.6299C20.1955 22.1687 21.1472 21.3876 21.8168 20.3855C22.4864 19.3834 22.8438 18.2052 22.8438 17C22.8421 15.3844 22.1995 13.8354 21.0571 12.6929C19.9146 11.5505 18.3656 10.9079 16.75 10.9062ZM16.75 21.0625C15.9465 21.0625 15.1611 20.8242 14.493 20.3778C13.8249 19.9315 13.3042 19.297 12.9967 18.5547C12.6893 17.8123 12.6088 16.9955 12.7656 16.2074C12.9223 15.4194 13.3092 14.6955 13.8774 14.1274C14.4455 13.5592 15.1694 13.1723 15.9574 13.0156C16.7455 12.8588 17.5623 12.9393 18.3047 13.2467C19.047 13.5542 19.6815 14.0749 20.1278 14.743C20.5742 15.4111 20.8125 16.1965 20.8125 17C20.8125 18.0774 20.3845 19.1108 19.6226 19.8726C18.8608 20.6345 17.8274 21.0625 16.75 21.0625ZM22.8438 3.79688H10.6562C8.77135 3.79889 6.96422 4.54856 5.63139 5.88139C4.29856 7.21422 3.54889 9.02135 3.54688 10.9062V23.0938C3.54889 24.9787 4.29856 26.7858 5.63139 28.1186C6.96422 29.4514 8.77135 30.2011 10.6562 30.2031H22.8438C24.7287 30.2011 26.5358 29.4514 27.8686 28.1186C29.2014 26.7858 29.9511 24.9787 29.9531 23.0938V10.9062C29.9511 9.02135 29.2014 7.21422 27.8686 5.88139C26.5358 4.54856 24.7287 3.79889 22.8438 3.79688ZM27.9219 23.0938C27.9219 24.4406 27.3869 25.7322 26.4345 26.6845C25.4822 27.6369 24.1906 28.1719 22.8438 28.1719H10.6562C9.30945 28.1719 8.01781 27.6369 7.06547 26.6845C6.11314 25.7322 5.57812 24.4406 5.57812 23.0938V10.9062C5.57812 9.55945 6.11314 8.26781 7.06547 7.31547C8.01781 6.36314 9.30945 5.82812 10.6562 5.82812H22.8438C24.1906 5.82812 25.4822 6.36314 26.4345 7.31547C27.3869 8.26781 27.9219 9.55945 27.9219 10.9062V23.0938ZM24.875 10.3984C24.875 10.6997 24.7857 10.9943 24.6183 11.2448C24.4509 11.4953 24.2129 11.6906 23.9346 11.8059C23.6562 11.9212 23.3499 11.9514 23.0544 11.8926C22.7588 11.8338 22.4874 11.6887 22.2743 11.4757C22.0613 11.2626 21.9162 10.9912 21.8574 10.6956C21.7986 10.4001 21.8288 10.0938 21.9441 9.81544C22.0594 9.53707 22.2547 9.29914 22.5052 9.13175C22.7557 8.96435 23.0503 8.875 23.3516 8.875C23.7556 8.875 24.1431 9.0355 24.4288 9.3212C24.7145 9.6069 24.875 9.9944 24.875 10.3984Z" fill="white"/>
</svg>
