<svg width="33" height="34" viewBox="0 0 33 34" fill="none" xmlns="http://www.w3.org/2000/svg">
<path d="M27.4219 3.79688H5.07812C4.5394 3.79688 4.02275 4.01088 3.64181 4.39181C3.26088 4.77275 3.04688 5.2894 3.04688 5.82812V28.1719C3.04688 28.7106 3.26088 29.2273 3.64181 29.6082C4.02275 29.9891 4.5394 30.2031 5.07812 30.2031H27.4219C27.9606 30.2031 28.4773 29.9891 28.8582 29.6082C29.2391 29.2273 29.4531 28.7106 29.4531 28.1719V5.82812C29.4531 5.2894 29.2391 4.77275 28.8582 4.39181C28.4773 4.01088 27.9606 3.79688 27.4219 3.79688ZM27.4219 28.1719H5.07812V5.82812H27.4219V28.1719ZM12.1875 14.9688V23.0938C12.1875 23.3631 12.0805 23.6214 11.89 23.8119C11.6996 24.0024 11.4412 24.1094 11.1719 24.1094C10.9025 24.1094 10.6442 24.0024 10.4537 23.8119C10.2633 23.6214 10.1562 23.3631 10.1562 23.0938V14.9688C10.1562 14.6994 10.2633 14.4411 10.4537 14.2506C10.6442 14.0601 10.9025 13.9531 11.1719 13.9531C11.4412 13.9531 11.6996 14.0601 11.89 14.2506C12.0805 14.4411 12.1875 14.6994 12.1875 14.9688ZM23.3594 18.5234V23.0938C23.3594 23.3631 23.2524 23.6214 23.0619 23.8119C22.8714 24.0024 22.6131 24.1094 22.3438 24.1094C22.0744 24.1094 21.8161 24.0024 21.6256 23.8119C21.4351 23.6214 21.3281 23.3631 21.3281 23.0938V18.5234C21.3281 17.85 21.0606 17.2042 20.5845 16.728C20.1083 16.2519 19.4625 15.9844 18.7891 15.9844C18.1157 15.9844 17.4698 16.2519 16.9937 16.728C16.5175 17.2042 16.25 17.85 16.25 18.5234V23.0938C16.25 23.3631 16.143 23.6214 15.9525 23.8119C15.7621 24.0024 15.5037 24.1094 15.2344 24.1094C14.965 24.1094 14.7067 24.0024 14.5162 23.8119C14.3258 23.6214 14.2188 23.3631 14.2188 23.0938V14.9688C14.22 14.72 14.3125 14.4803 14.4788 14.2952C14.645 14.1102 14.8734 13.9925 15.1206 13.9647C15.3678 13.9368 15.6166 14.0006 15.8199 14.1441C16.0232 14.2875 16.1667 14.5005 16.2233 14.7428C16.9104 14.2767 17.7114 14.0066 18.5404 13.9614C19.3694 13.9162 20.1951 14.0977 20.9287 14.4864C21.6623 14.8751 22.2762 15.4562 22.7044 16.1675C23.1327 16.8787 23.3591 17.6932 23.3594 18.5234ZM12.6953 11.4141C12.6953 11.7154 12.606 12.0099 12.4386 12.2604C12.2712 12.511 12.0332 12.7062 11.7549 12.8215C11.4765 12.9368 11.1702 12.967 10.8747 12.9082C10.5791 12.8494 10.3077 12.7044 10.0946 12.4913C9.88159 12.2782 9.73649 12.0068 9.67771 11.7113C9.61893 11.4158 9.6491 11.1094 9.7644 10.8311C9.87971 10.5527 10.075 10.3148 10.3255 10.1474C10.576 9.97997 10.8706 9.89062 11.1719 9.89062C11.5759 9.89062 11.9634 10.0511 12.2491 10.3368C12.5348 10.6225 12.6953 11.01 12.6953 11.4141Z" fill="white"/>
</svg>
