<svg width="33" height="34" viewBox="0 0 33 34" fill="none" xmlns="http://www.w3.org/2000/svg">
<path d="M21.3762 16.1545L15.2824 12.092C15.1294 11.9899 14.9516 11.9313 14.7679 11.9224C14.5842 11.9135 14.4015 11.9547 14.2394 12.0415C14.0772 12.1283 13.9417 12.2575 13.8473 12.4153C13.7528 12.5731 13.703 12.7536 13.7031 12.9375V21.0625C13.703 21.2464 13.7528 21.4269 13.8473 21.5847C13.9417 21.7425 14.0772 21.8717 14.2394 21.9585C14.4015 22.0454 14.5842 22.0865 14.7679 22.0776C14.9516 22.0687 15.1294 22.0101 15.2824 21.908L21.3762 17.8455C21.5155 17.7528 21.6297 17.6271 21.7087 17.4796C21.7878 17.3321 21.8291 17.1673 21.8291 17C21.8291 16.8327 21.7878 16.6679 21.7087 16.5204C21.6297 16.3729 21.5155 16.2472 21.3762 16.1545ZM15.7344 19.1646V14.8418L18.9818 17L15.7344 19.1646ZM30.2489 9.57579C30.1293 9.10777 29.9001 8.6749 29.5803 8.3129C29.2604 7.95089 28.8591 7.67012 28.4094 7.49375C24.0574 5.8129 17.1309 5.82813 16.75 5.82813C16.3691 5.82813 9.44258 5.8129 5.09063 7.49375C4.64091 7.67012 4.23957 7.95089 3.91973 8.3129C3.59988 8.6749 3.3707 9.10777 3.25107 9.57579C2.92227 10.8428 2.53125 13.1584 2.53125 17C2.53125 20.8416 2.92227 23.1572 3.25107 24.4242C3.37052 24.8925 3.59962 25.3256 3.91948 25.6878C4.23934 26.0501 4.64076 26.331 5.09063 26.5075C9.25977 28.116 15.7852 28.1719 16.6662 28.1719H16.8338C17.7148 28.1719 24.244 28.116 28.4094 26.5075C28.8592 26.331 29.2607 26.0501 29.5805 25.6878C29.9004 25.3256 30.1295 24.8925 30.2489 24.4242C30.5777 23.1547 30.9688 20.8416 30.9688 17C30.9688 13.1584 30.5777 10.8428 30.2489 9.57579ZM28.2824 23.9215C28.2437 24.0772 28.1687 24.2216 28.0634 24.3428C27.9582 24.4639 27.8257 24.5584 27.6769 24.6185C23.6588 26.1698 16.8249 26.1419 16.7589 26.1419H16.75C16.6814 26.1419 9.85264 26.1673 5.83203 24.6185C5.6832 24.5584 5.55073 24.4639 5.44547 24.3428C5.34021 24.2216 5.26516 24.0772 5.22646 23.9215C4.91797 22.7624 4.5625 20.6271 4.5625 17C4.5625 13.373 4.91797 11.2376 5.21758 10.0849C5.25555 9.92818 5.33028 9.78279 5.43558 9.66071C5.54088 9.53863 5.67373 9.44337 5.82314 9.38282C9.69775 7.88604 16.1901 7.85938 16.7221 7.85938H16.7563C16.8249 7.85938 23.6601 7.83653 27.6743 9.38282C27.8231 9.44288 27.9556 9.53736 28.0609 9.65851C28.1661 9.77966 28.2412 9.92403 28.2799 10.0798C28.582 11.2376 28.9375 13.373 28.9375 17C28.9375 20.6271 28.582 22.7624 28.2824 23.9151V23.9215Z" fill="white"/>
</svg>
