<svg width="20" height="20" viewBox="0 0 20 20" fill="none" xmlns="http://www.w3.org/2000/svg">
<g clip-path="url(#clip0_205_906)">
<path d="M10.7105 0C5.25246 0 2.50012 3.91298 2.50012 7.17673C2.50012 9.15251 3.24817 10.9101 4.85233 11.5646C5.11547 11.673 5.35129 11.5686 5.42762 11.2773C5.48065 11.0765 5.6064 10.5678 5.66224 10.3553C5.73897 10.0673 5.70924 9.96684 5.49672 9.71495C5.03432 9.16978 4.73823 8.46352 4.73823 7.46237C4.73823 4.55938 6.91045 1.9605 10.3944 1.9605C13.4794 1.9605 15.1743 3.84548 15.1743 6.3624C15.1743 9.67517 13.7083 12.4709 11.5325 12.4709C10.3305 12.4709 9.43139 11.4774 9.71904 10.2581C10.0641 8.80259 10.733 7.23258 10.733 6.18122C10.733 5.24114 10.228 4.45694 9.18392 4.45694C7.95539 4.45694 6.96831 5.72805 6.96831 7.43023C6.96831 8.51454 7.3347 9.24812 7.3347 9.24812C7.3347 9.24812 6.07764 14.5752 5.85708 15.5081C5.41838 17.3661 5.7912 19.6432 5.82294 19.873C5.84142 20.0096 6.01658 20.0425 6.09612 19.9397C6.20901 19.7915 7.67296 17.9852 8.16992 16.1798C8.31093 15.6692 8.97782 13.0225 8.97782 13.0225C9.37716 13.7842 10.5438 14.4535 11.7844 14.4535C15.4768 14.4535 17.9825 11.0873 17.9825 6.58135C17.9829 3.17337 15.0968 0 10.7105 0Z" fill="#F2F2F2"/>
</g>
<defs>
<clipPath id="clip0_205_906">
<rect width="20" height="20" fill="white"/>
</clipPath>
</defs>
</svg>
