<svg width="20" height="20" viewBox="0 0 20 20" fill="none" xmlns="http://www.w3.org/2000/svg">
<g clip-path="url(#clip0_72_79)">
<path d="M16.3248 4.77527C16.3248 5.00416 16.257 5.22791 16.1299 5.41824C16.0027 5.60857 15.822 5.75692 15.6106 5.84453C15.3991 5.93214 15.1664 5.95508 14.9419 5.91044C14.7175 5.8658 14.5112 5.75558 14.3494 5.59374C14.1876 5.43189 14.0773 5.22569 14.0327 5.0012C13.9881 4.77671 14.011 4.54403 14.0986 4.33258C14.1862 4.12113 14.3346 3.94041 14.5249 3.81327C14.7152 3.68614 14.939 3.61831 15.1679 3.61836C15.4747 3.61842 15.7689 3.74033 15.9859 3.95728C16.2028 4.17423 16.3247 4.46846 16.3248 4.77527ZM20.0001 10.0001L19.9999 10.0146L19.9342 14.2101C19.9171 15.7229 19.3086 17.1689 18.2388 18.2386C17.1691 19.3084 15.7231 19.9169 14.2103 19.934L10.0001 20.0001L9.9855 19.9999L5.78999 19.9343C4.27721 19.9173 2.83119 19.3087 1.7614 18.239C0.691599 17.1693 0.0830071 15.7233 0.0658576 14.2105L0 10.0001L0.000285741 9.9855L0.06581 5.78985C0.083008 4.27708 0.691615 2.83112 1.7614 1.76139C2.83119 0.691658 4.27717 0.083123 5.78995 0.0660005L10.0001 0L10.0146 0.000285741L14.2101 0.06581C15.7229 0.0829339 17.1688 0.691479 18.2386 1.76122C19.3083 2.83096 19.9169 4.27692 19.934 5.78966L20.0001 10.0001ZM18.1377 10.0001L18.0722 5.81909C18.0606 4.79069 17.6469 3.80768 16.9197 3.08044C16.1925 2.3532 15.2095 1.9395 14.1811 1.92787L10.0001 1.86258L5.81909 1.92787C4.79069 1.93953 3.80769 2.35323 3.08045 3.08046C2.35321 3.8077 1.93949 4.79069 1.92782 5.81909L1.86254 10.0001L1.92782 14.1811C1.93945 15.2095 2.35316 16.1925 3.08041 16.9197C3.80766 17.647 4.79068 18.0607 5.81909 18.0723L10.0001 18.1376L14.1811 18.0723C15.2095 18.0607 16.1925 17.647 16.9197 16.9197C17.647 16.1925 18.0606 15.2095 18.0722 14.1811L18.1377 10.0001ZM15.1353 10.0001C15.1353 11.0157 14.8342 12.0086 14.2699 12.8531C13.7056 13.6976 12.9036 14.3558 11.9652 14.7445C11.0269 15.1332 9.99431 15.2349 8.99815 15.0367C8.002 14.8386 7.08697 14.3495 6.36879 13.6313C5.6506 12.9131 5.16151 11.9981 4.96337 11.0019C4.76523 10.0057 4.86693 8.97319 5.25562 8.03484C5.64431 7.09648 6.30252 6.29445 7.14703 5.73018C7.99153 5.16591 8.9844 4.86474 10.0001 4.86475C11.3616 4.86629 12.6669 5.40782 13.6296 6.37055C14.5923 7.33328 15.1338 8.63858 15.1353 10.0001ZM13.2731 10.0001C13.2731 9.35272 13.0811 8.7199 12.7215 8.18165C12.3618 7.64339 11.8506 7.22387 11.2526 6.97614C10.6545 6.72841 9.99638 6.6636 9.36146 6.7899C8.72655 6.91619 8.14334 7.22793 7.6856 7.68568C7.22785 8.14343 6.91613 8.72664 6.78984 9.36156C6.66355 9.99647 6.72838 10.6546 6.97611 11.2527C7.22385 11.8507 7.64338 12.3619 8.18164 12.7216C8.7199 13.0812 9.35272 13.2732 10.0001 13.2731C10.8678 13.2721 11.6997 12.927 12.3133 12.3134C12.9269 11.6998 13.2721 10.8678 13.273 10.0001H13.2731Z" fill="#F2F2F2"/>
</g>
<defs>
<clipPath id="clip0_72_79">
<rect width="20.0001" height="20" fill="white"/>
</clipPath>
</defs>
</svg>
