<svg width="20" height="20" viewBox="0 0 20 20" fill="none" xmlns="http://www.w3.org/2000/svg">
<path d="M19.8332 5.66667C19.8332 5.5 19.5832 4.16667 18.9999 3.58333C18.2499 2.75 17.4166 2.66667 16.9999 2.66667H16.9166C14.3333 2.5 10.4999 2.5 10.4166 2.5C10.4166 2.5 6.49992 2.5 3.91658 2.66667H3.83325C3.41658 2.66667 2.58325 2.75 1.83325 3.58333C1.24992 4.25 0.999919 5.58333 0.999919 5.75C0.999919 5.83333 0.833252 7.33333 0.833252 8.91667V10.3333C0.833252 11.9167 0.999919 13.4167 0.999919 13.5C0.999919 13.6667 1.24992 15 1.83325 15.5833C2.49992 16.3333 3.33325 16.4167 3.83325 16.5C3.91658 16.5 3.99992 16.5 4.08325 16.5C5.58325 16.6667 10.1666 16.6667 10.3333 16.6667C10.3333 16.6667 14.2499 16.6667 16.8333 16.5H16.9166C17.3332 16.4167 18.1666 16.3333 18.9166 15.5833C19.4999 14.9167 19.7499 13.5833 19.7499 13.4167C19.7499 13.3333 19.9166 11.8333 19.9166 10.25V8.83333C19.9999 7.33333 19.8332 5.75 19.8332 5.66667ZM13.6666 9.75L8.66658 12.4167C8.58325 12.4167 8.58325 12.5 8.49992 12.5C8.41658 12.5 8.33325 12.5 8.33325 12.4167C8.24992 12.3333 8.16658 12.25 8.16658 12.0833V6.66667C8.16658 6.5 8.24992 6.41667 8.33325 6.33333C8.41658 6.25 8.58325 6.25 8.74992 6.33333L13.7499 9C13.9166 9.08333 13.9999 9.16667 13.9999 9.33333C13.9999 9.5 13.8333 9.66667 13.6666 9.75Z" fill="#F2F2F2"/>
</svg>
