<svg width="60" height="60" viewBox="0 0 60 60" fill="none" xmlns="http://www.w3.org/2000/svg">
<path opacity="0.2" d="M48.75 33.75C48.75 38.7228 46.7746 43.4919 43.2583 47.0083C39.7419 50.5246 34.9728 52.5 30 52.5C25.0272 52.5 20.2581 50.5246 16.7417 47.0083C13.2254 43.4919 11.25 38.7228 11.25 33.75C11.25 26.5852 14.6297 20.0953 18.5156 15L26.25 22.5L32.407 5.625C37.4672 9.825 48.75 20.6602 48.75 33.75Z" fill="#EF0D33"/>
<path d="M33.6047 4.18358C33.3735 3.99141 33.0996 3.85763 32.8059 3.79351C32.5122 3.7294 32.2075 3.73683 31.9173 3.81518C31.6271 3.89354 31.3599 4.04051 31.1384 4.24372C30.9169 4.44693 30.7475 4.70041 30.6445 4.9828L25.4883 19.1414L19.8258 13.6547C19.6356 13.4702 19.4085 13.3282 19.1595 13.2379C18.9104 13.1476 18.6451 13.1111 18.3809 13.1308C18.1167 13.1505 17.8597 13.226 17.6268 13.3522C17.3939 13.4785 17.1904 13.6527 17.0297 13.8633C11.9531 20.5148 9.375 27.2062 9.375 33.75C9.375 39.2201 11.548 44.4661 15.4159 48.3341C19.2839 52.202 24.5299 54.375 30 54.375C35.4701 54.375 40.7161 52.202 44.5841 48.3341C48.452 44.4661 50.625 39.2201 50.625 33.75C50.625 19.8164 38.7211 8.43749 33.6047 4.18358ZM30 50.625C25.526 50.62 21.2367 48.8405 18.0731 45.6769C14.9095 42.5133 13.13 38.224 13.125 33.75C13.125 28.5937 15.0211 23.2523 18.7641 17.85L24.9445 23.8453C25.169 24.0633 25.4444 24.2216 25.7458 24.3059C26.0471 24.3902 26.3647 24.3977 26.6697 24.3278C26.9747 24.2579 27.2573 24.1128 27.4918 23.9057C27.7264 23.6986 27.9054 23.4361 28.0125 23.1422L33.232 8.82889C38.4867 13.6125 46.875 22.9476 46.875 33.75C46.87 38.224 45.0905 42.5133 41.9269 45.6769C38.7633 48.8405 34.474 50.62 30 50.625Z" fill="#EF0D33"/>
</svg>
