<svg width="60" height="60" viewBox="0 0 60 60" fill="none" xmlns="http://www.w3.org/2000/svg">
<path opacity="0.2" d="M37.5 26.25C37.5 27.7334 37.0601 29.1834 36.236 30.4168C35.4119 31.6501 34.2406 32.6114 32.8701 33.1791C31.4997 33.7468 29.9917 33.8953 28.5368 33.6059C27.082 33.3165 25.7456 32.6022 24.6967 31.5533C23.6478 30.5044 22.9335 29.168 22.6441 27.7132C22.3547 26.2583 22.5032 24.7503 23.0709 23.3799C23.6386 22.0094 24.5999 20.8381 25.8332 20.014C27.0666 19.1899 28.5166 18.75 30 18.75C31.9891 18.75 33.8968 19.5402 35.3033 20.9467C36.7098 22.3532 37.5 24.2609 37.5 26.25Z" fill="#EF0D33"/>
<path d="M52.5 11.25V17.8125C52.5 18.3098 52.3025 18.7867 51.9508 19.1383C51.5992 19.49 51.1223 19.6875 50.625 19.6875C50.1277 19.6875 49.6508 19.49 49.2992 19.1383C48.9475 18.7867 48.75 18.3098 48.75 17.8125V11.25H42.1875C41.6902 11.25 41.2133 11.0525 40.8617 10.7008C40.51 10.3492 40.3125 9.87228 40.3125 9.375C40.3125 8.87772 40.51 8.40081 40.8617 8.04918C41.2133 7.69754 41.6902 7.5 42.1875 7.5H48.75C49.7446 7.5 50.6984 7.89509 51.4016 8.59835C52.1049 9.30161 52.5 10.2554 52.5 11.25ZM50.625 40.3125C50.1277 40.3125 49.6508 40.51 49.2992 40.8617C48.9475 41.2133 48.75 41.6902 48.75 42.1875V48.75H42.1875C41.6902 48.75 41.2133 48.9475 40.8617 49.2992C40.51 49.6508 40.3125 50.1277 40.3125 50.625C40.3125 51.1223 40.51 51.5992 40.8617 51.9508C41.2133 52.3025 41.6902 52.5 42.1875 52.5H48.75C49.7446 52.5 50.6984 52.1049 51.4016 51.4016C52.1049 50.6984 52.5 49.7446 52.5 48.75V42.1875C52.5 41.6902 52.3025 41.2133 51.9508 40.8617C51.5992 40.51 51.1223 40.3125 50.625 40.3125ZM17.8125 48.75H11.25V42.1875C11.25 41.6902 11.0525 41.2133 10.7008 40.8617C10.3492 40.51 9.87228 40.3125 9.375 40.3125C8.87772 40.3125 8.40081 40.51 8.04918 40.8617C7.69754 41.2133 7.5 41.6902 7.5 42.1875V48.75C7.5 49.7446 7.89509 50.6984 8.59835 51.4016C9.30161 52.1049 10.2554 52.5 11.25 52.5H17.8125C18.3098 52.5 18.7867 52.3025 19.1383 51.9508C19.49 51.5992 19.6875 51.1223 19.6875 50.625C19.6875 50.1277 19.49 49.6508 19.1383 49.2992C18.7867 48.9475 18.3098 48.75 17.8125 48.75ZM9.375 19.6875C9.87228 19.6875 10.3492 19.49 10.7008 19.1383C11.0525 18.7867 11.25 18.3098 11.25 17.8125V11.25H17.8125C18.3098 11.25 18.7867 11.0525 19.1383 10.7008C19.49 10.3492 19.6875 9.87228 19.6875 9.375C19.6875 8.87772 19.49 8.40081 19.1383 8.04918C18.7867 7.69754 18.3098 7.5 17.8125 7.5H11.25C10.2554 7.5 9.30161 7.89509 8.59835 8.59835C7.89509 9.30161 7.5 10.2554 7.5 11.25V17.8125C7.5 18.3098 7.69754 18.7867 8.04918 19.1383C8.40081 19.49 8.87772 19.6875 9.375 19.6875ZM41.25 41.25C40.9587 41.2506 40.6713 41.1834 40.4105 41.0536C40.1497 40.9238 39.9228 40.7351 39.7477 40.5023C38.6124 38.9887 37.1404 37.7602 35.4481 36.914C33.7558 36.0679 31.8897 35.6273 29.9977 35.6273C28.1056 35.6273 26.2395 36.0679 24.5472 36.914C22.8549 37.7602 21.3829 38.9887 20.2477 40.5023C19.9487 40.9002 19.5039 41.1629 19.0112 41.2328C18.5184 41.3027 18.0181 41.174 17.6203 40.875C17.2225 40.576 16.9597 40.1312 16.8898 39.6385C16.82 39.1458 16.9487 38.6455 17.2477 38.2477C18.9094 36.0227 21.124 34.271 23.6719 33.1664C22.2757 31.8917 21.2976 30.2247 20.8658 28.3842C20.434 26.5437 20.5687 24.6156 21.2523 22.853C21.9359 21.0904 23.1364 19.5757 24.6963 18.5076C26.2561 17.4395 28.1025 16.8679 29.993 16.8679C31.8835 16.8679 33.7298 17.4395 35.2897 18.5076C36.8495 19.5757 38.05 21.0904 38.7336 22.853C39.4172 24.6156 39.552 26.5437 39.1202 28.3842C38.6884 30.2247 37.7102 31.8917 36.3141 33.1664C38.8636 34.2703 41.08 36.0221 42.743 38.2477C42.9522 38.5257 43.0799 38.8566 43.1118 39.2031C43.1437 39.5497 43.0786 39.8983 42.9236 40.2099C42.7687 40.5215 42.53 40.7838 42.2345 40.9675C41.9389 41.1512 41.598 41.249 41.25 41.25ZM30 31.875C31.1125 31.875 32.2001 31.5451 33.1251 30.927C34.0501 30.3089 34.7711 29.4304 35.1968 28.4026C35.6226 27.3748 35.734 26.2438 35.5169 25.1526C35.2999 24.0615 34.7641 23.0592 33.9775 22.2725C33.1908 21.4859 32.1885 20.9501 31.0974 20.7331C30.0062 20.516 28.8752 20.6274 27.8474 21.0532C26.8196 21.4789 25.9411 22.1999 25.323 23.1249C24.7049 24.0499 24.375 25.1375 24.375 26.25C24.375 27.7418 24.9676 29.1726 26.0225 30.2275C27.0774 31.2824 28.5082 31.875 30 31.875Z" fill="#EF0D33"/>
</svg>
